<svg xmlns="http://www.w3.org/2000/svg" width="1200" height="630" viewBox="0 0 1200 630" role="img" aria-labelledby="title desc">
  <title id="title">React XLSX Playground</title>
  <desc id="desc">Interactive spreadsheet playground for the react-xlsx viewer.</desc>
  <defs>
    <linearGradient id="bg" x1="0%" x2="100%" y1="0%" y2="100%">
      <stop offset="0%" stop-color="#f4fbf7" />
      <stop offset="48%" stop-color="#dcf3e6" />
      <stop offset="100%" stop-color="#edf5ff" />
    </linearGradient>
    <linearGradient id="card" x1="0%" x2="100%" y1="0%" y2="100%">
      <stop offset="0%" stop-color="#ffffff" />
      <stop offset="100%" stop-color="#f5fbf8" />
    </linearGradient>
    <linearGradient id="accent" x1="0%" x2="100%" y1="0%" y2="100%">
      <stop offset="0%" stop-color="#1f9d67" />
      <stop offset="100%" stop-color="#155f42" />
    </linearGradient>
  </defs>
  <rect width="1200" height="630" fill="url(#bg)" />
  <circle cx="1060" cy="82" r="160" fill="#b7e5d0" opacity="0.36" />
  <circle cx="98" cy="92" r="144" fill="#d0e4ff" opacity="0.45" />
  <g transform="translate(76 76)">
    <rect width="1048" height="478" rx="28" fill="url(#card)" stroke="#d8ebe1" stroke-width="3" />
    <rect x="34" y="34" width="980" height="62" rx="18" fill="#f7fbf8" stroke="#dfeee5" stroke-width="2" />
    <rect x="58" y="52" width="32" height="32" rx="10" fill="url(#accent)" />
    <rect x="102" y="54" width="176" height="12" rx="6" fill="#133c2a" opacity="0.92" />
    <rect x="102" y="74" width="118" height="10" rx="5" fill="#5c7a6b" opacity="0.65" />
    <rect x="748" y="48" width="110" height="34" rx="17" fill="#eef7f1" stroke="#d8ebe1" stroke-width="2" />
    <rect x="872" y="48" width="110" height="34" rx="17" fill="#133c2a" />
    <rect x="34" y="116" width="980" height="328" rx="24" fill="#ffffff" stroke="#d8ebe1" stroke-width="2" />
    <rect x="58" y="140" width="740" height="280" rx="16" fill="#fbfefd" stroke="#e0efe6" stroke-width="2" />
    <rect x="816" y="140" width="174" height="280" rx="16" fill="#f7fbf8" stroke="#e0efe6" stroke-width="2" />
    <rect x="58" y="140" width="740" height="42" rx="16" fill="#eff7f2" />
    <rect x="58" y="140" width="64" height="280" rx="16" fill="#f5fbf8" />
    <g stroke="#d8ebe1" stroke-width="2">
      <path d="M122 140v280" />
      <path d="M244 140v280" />
      <path d="M366 140v280" />
      <path d="M488 140v280" />
      <path d="M610 140v280" />
      <path d="M732 140v280" />
      <path d="M58 182h740" />
      <path d="M58 228h740" />
      <path d="M58 274h740" />
      <path d="M58 320h740" />
      <path d="M58 366h740" />
    </g>
    <rect x="244" y="228" width="122" height="46" rx="10" fill="#dff4e8" stroke="#7fc8a0" stroke-width="3" />
    <rect x="488" y="274" width="122" height="46" rx="10" fill="#e4f0ff" stroke="#93bdfa" stroke-width="3" />
    <rect x="610" y="320" width="122" height="46" rx="10" fill="#fde8d1" stroke="#f2b46b" stroke-width="3" />
    <g fill="#183e2d" font-family="Inter, Arial, sans-serif">
      <text x="140" y="500" font-size="52" font-weight="700">React XLSX Playground</text>
      <text x="140" y="548" font-size="24" opacity="0.72">Themeable spreadsheet viewer, canvas renderer, editing tools, and workbook diagnostics.</text>
    </g>
    <g>
      <rect x="816" y="166" width="118" height="84" rx="18" fill="#133c2a" />
      <text x="844" y="203" fill="#ffffff" font-family="Inter, Arial, sans-serif" font-size="18" font-weight="700">Customizer</text>
      <text x="844" y="228" fill="#d9efe5" font-family="Inter, Arial, sans-serif" font-size="14">theme / radius / icons</text>
      <rect x="836" y="280" width="132" height="20" rx="10" fill="#d8ebe1" />
      <rect x="836" y="314" width="100" height="20" rx="10" fill="#d8ebe1" />
      <rect x="836" y="348" width="84" height="20" rx="10" fill="#d8ebe1" />
    </g>
  </g>
</svg>
